<?xml version="1.0" encoding="UTF-8"?><svg xmlns="http://www.w3.org/2000/svg" xmlns:xlink="http://www.w3.org/1999/xlink" contentScriptType="text/ecmascript" fill="#000000" width="308.3" zoomAndPan="magnify" contentStyleType="text/css" viewBox="70.8 70.8 308.3 308.3" height="308.3" preserveAspectRatio="xMidYMid meet" version="1.1">
 <g id="change1_1">
  <path fill="#eb82b3" d="m337.35 123c-1.22-1.35-2.48-2.7-3.75-4l1.72-1.68c1.29 1.33 2.57 2.7 3.81 4.06zm-12.26-12.09l1.58-1.8c1.38 1.21 2.77 2.48 4.12 3.75l-1.65 1.75c-1.33-1.26-2.69-2.5-4.05-3.7zm19.81 21.09c-1.12-1.45-2.28-2.88-3.44-4.28l1.84-1.53c1.19 1.41 2.36 2.87 3.5 4.34zm-28.93-28.49l1.44-1.92c1.48 1.11 2.95 2.26 4.39 3.42l-1.5 1.87c-1.42-1.15-2.87-2.28-4.33-3.37zm35.75 38.04c-1-1.51-2.04-3.04-3.09-4.52l1.96-1.39c1.07 1.5 2.12 3.05 3.14 4.59zm-45.42-44.706l1.29-2.028c1.56 0.993 3.13 2.024 4.65 3.067l-1.36 1.976c-1.5-1.023-3.04-2.039-4.58-3.015zm51.49 54.756c-0.88-1.59-1.8-3.19-2.74-4.74l2.06-1.24c0.95 1.58 1.89 3.2 2.78 4.82zm-61.64-60.651l1.12-2.121c1.63 0.863 3.27 1.77 4.87 2.695l-1.19 2.079c-1.58-0.911-3.2-1.805-4.8-2.653zm66.92 71.141c-0.75-1.66-1.55-3.32-2.36-4.95l2.15-1.07c0.82 1.65 1.63 3.34 2.39 5.02zm-77.5-76.231l0.95-2.199c1.69 0.735 3.4 1.508 5.07 2.309l-1.04 2.164c-1.64-0.785-3.32-1.551-4.98-2.274zm81.96 87.081c-0.63-1.71-1.29-3.42-1.98-5.1l2.22-0.91c0.7 1.71 1.37 3.45 2.01 5.19zm-92.91-91.335l0.78-2.269c1.75 0.605 3.51 1.25 5.23 1.91l-0.86 2.242c-1.7-0.656-3.43-1.289-5.15-1.883zm96.51 102.5c-0.49-1.75-1.02-3.52-1.58-5.25l2.29-0.73c0.56 1.76 1.1 3.55 1.6 5.33zm-107.75-105.91l0.6-2.32c1.17 0.305 2.34 0.625 3.5 0.957 0.63 0.18 1.25 0.359 1.87 0.547l-0.69 2.301c-0.61-0.184-1.23-0.364-1.84-0.539-1.15-0.329-2.29-0.645-3.44-0.946zm110.48 117.32c-0.35-1.79-0.74-3.59-1.16-5.35l2.34-0.56c0.42 1.8 0.82 3.62 1.18 5.44zm-121.94-119.86l0.42-2.359c1.82 0.328 3.66 0.695 5.46 1.09l-0.51 2.343c-1.78-0.386-3.59-0.75-5.37-1.074zm123.78 131.44c-0.21-1.81-0.47-3.63-0.74-5.42l2.37-0.38c0.28 1.83 0.54 3.68 0.76 5.51zm-135.4-133.09l0.24-2.387c1.84 0.187 3.69 0.41 5.53 0.664l-0.34 2.379c-1.8-0.25-3.63-0.473-5.43-0.656zm136.34 144.77c-0.08-1.82-0.19-3.65-0.33-5.46l2.39-0.19c0.15 1.84 0.26 3.71 0.33 5.55zm-148.05-145.51l0.06-2.399c1.85 0.043 3.71 0.125 5.55 0.234l-0.15 2.399c-1.8-0.109-3.64-0.192-5.46-0.234zm148.07 157.23c0.06-1.82 0.1-3.66 0.1-5.47h2.4c0 1.84-0.04 3.71-0.11 5.56zm-159.78-157.06l-0.13-2.398c1.84-0.098 3.71-0.164 5.55-0.195l0.04 2.398c-1.81 0.031-3.65 0.098-5.46 0.195zm158.89 168.76c0.2-1.81 0.38-3.65 0.52-5.45l2.4 0.18c-0.15 1.84-0.33 3.7-0.54 5.54zm-170.56-167.68l-0.32-2.378c1.83-0.243 3.68-0.454 5.52-0.629l0.23 2.386c-1.81 0.176-3.64 0.383-5.43 0.621zm168.76 179.28c0.35-1.78 0.67-3.6 0.95-5.4l2.37 0.38c-0.29 1.82-0.61 3.67-0.97 5.48zm-180.32-177.29l-0.5-2.348c1.8-0.383 3.64-0.738 5.46-1.055l0.41 2.364c-1.79 0.312-3.6 0.664-5.37 1.039zm177.64 188.72c0.48-1.76 0.94-3.54 1.36-5.31l2.33 0.55c-0.42 1.8-0.89 3.61-1.38 5.39zm-189.01-185.85l-0.68-2.305c1.77-0.519 3.58-1.016 5.36-1.473l0.59 2.325c-1.75 0.449-3.53 0.937-5.27 1.453zm185.46 197.04c0.62-1.71 1.21-3.46 1.76-5.19l2.29 0.73c-0.56 1.76-1.17 3.54-1.79 5.27zm-196.58-193.29l-0.86-2.242c1.73-0.657 3.49-1.293 5.24-1.887l0.77 2.273c-1.72 0.586-3.45 1.207-5.15 1.856zm192.19 204.19c0.74-1.66 1.47-3.36 2.15-5.05l2.23 0.91c-0.7 1.71-1.43 3.44-2.19 5.12zm-202.99-199.6l-1.02-2.168c1.66-0.785 3.37-1.555 5.07-2.281l0.94 2.203c-1.67 0.718-3.35 1.476-4.99 2.246zm197.77 210.11c0.87-1.6 1.73-3.23 2.53-4.85l2.15 1.07c-0.82 1.65-1.69 3.31-2.58 4.93zm-208.19-204.7l-1.19-2.086c1.61-0.914 3.25-1.813 4.89-2.664l1.11 2.125c-1.61 0.844-3.23 1.726-4.81 2.625zm202.17 214.78c0.99-1.52 1.96-3.08 2.9-4.64l2.06 1.23c-0.95 1.59-1.95 3.18-2.96 4.72zm-212.14-208.59l-1.35-1.988c1.54-1.035 3.11-2.055 4.67-3.031l1.27 2.035c-1.54 0.961-3.08 1.965-4.59 2.984zm205.34 218.17c1.12-1.44 2.21-2.93 3.26-4.4l1.96 1.39c-1.07 1.5-2.18 3-3.32 4.47zm-214.81-211.22l-1.5-1.88c1.45-1.14 2.93-2.28 4.43-3.38l1.42 1.93c-1.47 1.08-2.94 2.2-4.35 3.33zm207.3 220.24c1.22-1.35 2.43-2.75 3.59-4.14l1.84 1.54c-1.18 1.42-2.41 2.83-3.65 4.21zm-216.21-212.58l-1.63-1.76c1.35-1.26 2.74-2.51 4.15-3.72l1.57 1.82c-1.38 1.19-2.76 2.42-4.09 3.66zm209.66 222.73l-1.65-1.74c0.95-0.89 1.88-1.8 2.8-2.72 0.37-0.38 0.74-0.75 1.11-1.13l1.71 1.68c-0.37 0.39-0.75 0.77-1.12 1.14-0.94 0.94-1.89 1.86-2.85 2.77zm-219.71-216.04c1.25-1.35 2.54-2.71 3.85-4.02l1.7 1.69c-1.28 1.29-2.55 2.62-3.79 3.96zm210.75 223.92l-1.51-1.86c1.41-1.15 2.82-2.34 4.19-3.54l1.58 1.81c-1.39 1.21-2.82 2.42-4.26 3.59zm-218.49-214.84c1.15-1.45 2.33-2.9 3.52-4.31l1.84 1.55c-1.18 1.39-2.34 2.82-3.47 4.25zm208.95 222l-1.36-1.98c1.5-1.04 2.99-2.11 4.45-3.2l1.43 1.93c-1.47 1.1-3 2.19-4.52 3.25zm-215.95-212.34c1.023-1.54 2.094-3.07 3.176-4.57l1.943 1.4c-1.06 1.47-2.115 2.99-3.123 4.5zm205.89 218.74l-1.21-2.08c1.57-0.91 3.15-1.87 4.68-2.84l1.29 2.03c-1.56 0.99-3.16 1.95-4.76 2.89zm-212.12-208.57c0.903-1.61 1.848-3.23 2.809-4.81l2.047 1.25c-0.946 1.55-1.875 3.14-2.762 4.73zm201.6 214.18l-1.05-2.16c1.64-0.8 3.28-1.63 4.89-2.48l1.12 2.12c-1.63 0.86-3.3 1.71-4.96 2.52zm-207.02-203.55c0.774-1.68 1.59-3.37 2.426-5.02l2.141 1.09c-0.824 1.62-1.625 3.28-2.387 4.93zm196.1 208.33l-0.88-2.24c1.7-0.66 3.4-1.36 5.06-2.09l0.96 2.2c-1.69 0.74-3.42 1.45-5.14 2.13zm-200.68-197.32c0.645-1.73 1.329-3.48 2.032-5.19l2.218 0.92c-0.691 1.68-1.367 3.4-2 5.11zm189.43 201.25l-0.71-2.3c1.75-0.53 3.5-1.1 5.21-1.7l0.79 2.27c-1.75 0.6-3.52 1.19-5.29 1.73zm-193.84-187.45c0.223-0.82 0.453-1.65 0.688-2.47 0.511-1.77 1.058-3.57 1.629-5.32l2.281 0.74c-0.563 1.73-1.102 3.49-1.602 5.24-0.234 0.81-0.457 1.63-0.675 2.43zm182.32 190.49l-0.53-2.34c1.77-0.39 3.56-0.83 5.32-1.29l0.61 2.32c-1.79 0.47-3.61 0.91-5.4 1.31zm-184.98-178.87c0.344-1.81 0.723-3.64 1.129-5.45l2.34 0.53c-0.399 1.78-0.774 3.58-1.11 5.37zm173.26 181.02l-0.34-2.38c1.8-0.26 3.62-0.55 5.4-0.87l0.43 2.36c-1.82 0.33-3.66 0.63-5.49 0.89zm-175.02-169.22c0.203-1.84 0.442-3.69 0.707-5.52l2.375 0.34c-0.262 1.81-0.496 3.63-0.695 5.44zm163.17 170.45l-0.15-2.4c1.81-0.12 3.65-0.27 5.45-0.45l0.24 2.39c-1.83 0.18-3.69 0.33-5.54 0.46zm-164-158.57c0.059-1.85 0.153-3.71 0.278-5.55l2.394 0.17c-0.121 1.8-0.215 3.64-0.269 5.45zm152.1 158.87l0.03-2.4c1.82 0.02 3.66 0.01 5.47-0.03l0.06 2.4c-1.85 0.05-3.72 0.05-5.56 0.03zm-152.01-146.97c-0.086-1.84-0.137-3.71-0.156-5.55l2.398-0.03c0.02 1.82 0.074 3.66 0.157 5.47zm140.11 146.35l0.23-2.4c1.81 0.17 3.65 0.31 5.46 0.4l-0.14 2.4c-1.83-0.1-3.7-0.24-5.55-0.4zm-139.09-134.48c-0.231-1.84-0.43-3.7-0.59-5.53l2.39-0.21c0.161 1.81 0.352 3.63 0.579 5.44zm127.27 132.93l0.41-2.37c1.78 0.31 3.6 0.58 5.41 0.82l-0.32 2.38c-1.83-0.24-3.68-0.52-5.5-0.83zm-125.34-121.18c-0.371-1.81-0.711-3.65-1.015-5.47l2.367-0.39c0.297 1.79 0.637 3.6 1 5.38zm113.67 118.73l0.59-2.33c1.77 0.44 3.57 0.86 5.34 1.23l-0.5 2.35c-1.8-0.38-3.62-0.81-5.43-1.25zm-110.83-107.16c-0.508-1.77-0.992-3.58-1.437-5.37l2.332-0.58c0.437 1.76 0.91 3.54 1.414 5.29zm99.381 103.82l0.76-2.28c1.73 0.58 3.49 1.13 5.23 1.64l-0.68 2.3c-1.76-0.52-3.55-1.08-5.31-1.66zm-95.654-92.5c-0.645-1.73-1.266-3.5-1.848-5.25l2.277-0.75c0.575 1.72 1.184 3.46 1.821 5.16zm84.494 88.3l0.93-2.21c1.67 0.7 3.39 1.38 5.09 2.03l-0.85 2.24c-1.73-0.65-3.47-1.35-5.17-2.06zm-79.905-77.3c-0.773-1.67-1.531-3.38-2.246-5.09l2.211-0.93c0.707 1.68 1.45 3.37 2.211 5.02zm69.095 72.24l1.1-2.13c1.62 0.83 3.27 1.65 4.92 2.42l-1.02 2.18c-1.68-0.79-3.36-1.62-5-2.47zm-63.673-61.62c-0.902-1.61-1.789-3.26-2.632-4.9l2.136-1.1c0.828 1.62 1.699 3.24 2.59 4.83zm53.293 55.75l1.26-2.04c1.55 0.95 3.13 1.9 4.71 2.79l-1.18 2.09c-1.61-0.91-3.22-1.87-4.79-2.84zm-47.07-45.57c-1.023-1.54-2.031-3.12-3-4.69l2.043-1.26c0.953 1.55 1.949 3.11 2.953 4.61zm37.18 38.9l1.42-1.93c1.47 1.07 2.97 2.14 4.47 3.15l-1.34 1.99c-1.53-1.04-3.06-2.11-4.55-3.21zm-30.19-29.24c-1.14-1.45-2.27-2.94-3.36-4.44l1.94-1.41c1.08 1.47 2.19 2.94 3.31 4.37zm20.85 21.82l1.56-1.82c1.39 1.2 2.8 2.37 4.22 3.5l-1.5 1.88c-1.44-1.15-2.88-2.35-4.28-3.56zm-13.14-12.72c-1.24-1.36-2.48-2.76-3.68-4.17l1.82-1.56c1.18 1.39 2.41 2.78 3.63 4.11zm4.64 4.85l-0.24-0.25 1.7-1.69 0.24 0.24c1.21 1.21 2.45 2.41 3.69 3.57l-1.63 1.76c-1.27-1.18-2.53-2.4-3.76-3.63"/>
 </g>
</svg>